<?xml version="1.0" encoding="UTF-8" standalone="no"?>
<!DOCTYPE svg PUBLIC "-//W3C//DTD SVG 1.1//EN" "http://www.w3.org/Graphics/SVG/1.1/DTD/svg11.dtd">
<svg className="logo" version="1.1" xmlns="http://www.w3.org/2000/svg" xmlns:xlink="http://www.w3.org/1999/xlink" preserveAspectRatio="xMidYMid meet" viewBox="0 0 300 300" width="300" height="300"><defs><path d="M150.6 0.02L150.9 0.04L151.19 0.06L151.49 0.1L151.79 0.14L152.08 0.19L152.38 0.25L152.67 0.31L152.96 0.39L153.25 0.47L153.54 0.56L153.83 0.65L154.11 0.76L154.39 0.87L154.67 0.99L154.95 1.12L155.23 1.25L155.5 1.4L155.77 1.55L275.68 70.78L275.95 70.93L276.21 71.1L276.46 71.27L276.71 71.45L276.95 71.63L277.19 71.82L277.42 72.01L277.65 72.21L277.87 72.42L278.09 72.63L278.3 72.84L278.5 73.07L278.7 73.29L278.89 73.52L279.07 73.76L279.25 74L279.43 74.24L279.59 74.49L279.75 74.74L279.9 75L280.05 75.26L280.19 75.53L280.32 75.79L280.45 76.06L280.57 76.34L280.68 76.62L280.78 76.9L280.88 77.18L280.97 77.47L281.05 77.76L281.13 78.05L281.19 78.34L281.25 78.64L281.3 78.94L281.35 79.24L281.38 79.54L281.41 79.85L281.43 80.15L281.45 80.46L281.45 80.77L281.45 219.23L281.45 219.54L281.43 219.85L281.41 220.15L281.38 220.46L281.35 220.76L281.3 221.06L281.25 221.36L281.19 221.66L281.13 221.95L281.05 222.24L280.97 222.53L280.88 222.82L280.78 223.1L280.68 223.38L280.57 223.66L280.45 223.94L280.32 224.21L280.19 224.48L280.05 224.74L279.9 225L279.75 225.26L279.59 225.51L279.43 225.76L279.25 226L279.07 226.24L278.89 226.48L278.7 226.71L278.5 226.94L278.3 227.16L278.09 227.37L277.87 227.58L277.65 227.79L277.42 227.99L277.19 228.18L276.95 228.37L276.71 228.55L276.46 228.73L276.21 228.9L275.95 229.07L275.68 229.22L155.77 298.45L155.5 298.61L155.23 298.75L154.95 298.88L154.67 299.01L154.39 299.13L154.11 299.24L153.83 299.35L153.54 299.44L153.25 299.53L152.96 299.61L152.67 299.69L152.38 299.75L152.08 299.81L151.79 299.86L151.49 299.9L151.19 299.94L150.9 299.97L150.6 299.99L150.3 300L150 300L149.7 300L149.4 299.99L149.1 299.97L148.81 299.94L148.51 299.9L148.21 299.86L147.92 299.81L147.62 299.75L147.33 299.69L147.04 299.61L146.75 299.53L146.46 299.44L146.17 299.35L145.89 299.24L145.6 299.13L145.32 299.01L145.05 298.88L144.77 298.75L144.5 298.61L144.23 298.45L24.32 229.22L24.05 229.07L23.79 228.9L23.54 228.73L23.29 228.55L23.05 228.37L22.81 228.18L22.58 227.99L22.35 227.79L22.13 227.58L21.91 227.37L21.7 227.16L21.5 226.94L21.3 226.71L21.11 226.48L20.93 226.24L20.75 226L20.57 225.76L20.41 225.51L20.25 225.26L20.1 225L19.95 224.74L19.81 224.48L19.68 224.21L19.55 223.94L19.43 223.66L19.32 223.38L19.22 223.1L19.12 222.82L19.03 222.53L18.95 222.24L18.87 221.95L18.81 221.66L18.75 221.36L18.7 221.06L18.65 220.76L18.62 220.46L18.59 220.15L18.57 219.85L18.55 219.54L18.55 219.23L18.55 80.77L18.55 80.46L18.57 80.15L18.59 79.85L18.62 79.54L18.65 79.24L18.7 78.94L18.75 78.64L18.81 78.35L18.87 78.05L18.95 77.76L19.03 77.47L19.12 77.18L19.22 76.9L19.32 76.62L19.43 76.34L19.55 76.06L19.68 75.79L19.81 75.53L19.95 75.26L20.1 75L20.25 74.74L20.41 74.49L20.57 74.24L20.75 74L20.93 73.76L21.11 73.52L21.3 73.29L21.5 73.07L21.7 72.84L21.91 72.63L22.13 72.42L22.35 72.21L22.58 72.01L22.81 71.82L23.05 71.63L23.29 71.45L23.54 71.27L23.79 71.1L24.05 70.93L24.32 70.78L144.23 1.55L144.5 1.4L144.77 1.25L145.05 1.12L145.32 0.99L145.61 0.87L145.89 0.76L146.17 0.65L146.46 0.56L146.75 0.47L147.04 0.39L147.33 0.31L147.62 0.25L147.92 0.19L148.21 0.14L148.51 0.1L148.81 0.06L149.1 0.04L149.4 0.02L149.7 0L150 0L150.3 0L150.6 0.02ZM230.63 187.44L230.26 187.48L229.89 187.53L229.52 187.6L229.15 187.69L228.78 187.78L228.42 187.9L228.06 188.03L227.7 188.17L227.34 188.33L226.99 188.51L226.64 188.7L145.19 235.72L144.85 235.93L144.53 236.15L144.21 236.37L143.9 236.61L143.61 236.86L143.33 237.12L143.06 237.39L142.81 237.67L142.56 237.95L142.33 238.25L142.11 238.55L141.9 238.86L141.71 239.18L141.53 239.5L141.36 239.83L141.2 240.17L141.06 240.51L140.93 240.86L140.81 241.21L140.71 241.56L140.62 241.92L140.55 242.28L140.49 242.65L140.44 243.01L140.41 243.38L140.39 243.75L140.38 244.12L140.39 244.49L140.42 244.87L140.46 245.24L140.51 245.61L140.58 245.98L140.66 246.35L140.76 246.72L140.87 247.08L141 247.44L141.15 247.8L141.31 248.16L141.48 248.51L141.67 248.86L141.88 249.2L142.1 249.53L142.32 249.84L142.56 250.15L142.81 250.44L143.07 250.72L143.34 250.99L143.62 251.25L143.91 251.49L144.2 251.72L144.5 251.94L144.81 252.15L145.13 252.34L145.46 252.53L145.79 252.69L146.12 252.85L146.46 252.99L146.81 253.12L147.16 253.24L147.51 253.34L147.87 253.43L148.23 253.5L148.6 253.56L148.97 253.61L149.33 253.64L149.7 253.66L150.08 253.67L150.45 253.66L150.82 253.63L151.19 253.59L151.56 253.54L151.93 253.47L152.3 253.39L152.67 253.29L153.03 253.18L153.4 253.05L153.75 252.9L154.11 252.74L154.46 252.57L154.81 252.38L236.26 205.35L236.6 205.15L236.92 204.93L237.24 204.7L237.55 204.46L237.84 204.21L238.12 203.95L238.39 203.69L238.64 203.41L238.89 203.12L239.12 202.83L239.34 202.52L239.55 202.21L239.74 201.9L239.92 201.57L240.09 201.24L240.25 200.91L240.39 200.56L240.52 200.22L240.64 199.87L240.74 199.51L240.83 199.16L240.9 198.79L240.96 198.43L241.01 198.06L241.04 197.69L241.06 197.32L241.07 196.95L241.06 196.58L241.03 196.21L240.99 195.84L240.94 195.47L240.87 195.09L240.79 194.73L240.69 194.36L240.58 193.99L240.45 193.63L240.3 193.27L240.14 192.92L239.97 192.56L239.78 192.22L239.57 191.88L239.35 191.55L239.13 191.23L238.89 190.93L238.64 190.64L238.38 190.36L238.11 190.09L237.83 189.83L237.55 189.59L237.25 189.35L236.95 189.13L236.64 188.93L236.32 188.73L236 188.55L235.67 188.38L235.33 188.23L234.99 188.08L234.64 187.96L234.29 187.84L233.94 187.74L233.58 187.65L233.22 187.57L232.85 187.51L232.49 187.47L232.12 187.43L231.75 187.41L231.38 187.41L231.01 187.42L230.63 187.44ZM67.76 93.39L67.37 93.43L66.99 93.49L66.61 93.56L66.24 93.64L65.87 93.74L65.51 93.85L65.16 93.98L64.81 94.12L64.47 94.27L64.13 94.43L63.8 94.61L63.49 94.8L63.17 95L62.87 95.22L62.58 95.44L62.29 95.68L62.02 95.92L61.75 96.18L61.5 96.44L61.25 96.72L61.01 97L60.79 97.3L60.58 97.6L60.38 97.91L60.19 98.23L60.01 98.56L59.84 98.89L59.69 99.23L59.55 99.58L59.43 99.94L59.31 100.3L59.21 100.67L59.13 101.04L59.06 101.42L59.01 101.8L58.97 102.19L58.94 102.58L58.93 102.98L58.93 197.02L58.94 197.42L58.97 197.81L59.01 198.2L59.06 198.58L59.13 198.96L59.21 199.33L59.31 199.7L59.43 200.06L59.55 200.42L59.69 200.77L59.84 201.11L60.01 201.44L60.19 201.77L60.38 202.09L60.58 202.4L60.79 202.7L61.01 203L61.25 203.28L61.5 203.56L61.75 203.82L62.02 204.08L62.29 204.32L62.58 204.56L62.87 204.78L63.17 205L63.49 205.2L63.8 205.39L64.13 205.57L64.47 205.73L64.81 205.88L65.16 206.02L65.51 206.15L65.87 206.26L66.24 206.36L66.61 206.44L66.99 206.51L67.37 206.57L67.76 206.61L68.15 206.63L68.55 206.64L68.81 206.63L69.08 206.62L69.34 206.59L69.6 206.54L69.86 206.49L70.12 206.42L70.38 206.35L70.63 206.26L70.89 206.15L71.14 206.04L71.39 205.91L71.65 205.77L71.9 205.62L72.14 205.46L72.39 205.29L72.64 205.1L72.88 204.9L73.13 204.69L73.37 204.47L73.61 204.24L73.85 203.99L74.09 203.73L74.32 203.46L74.56 203.18L74.79 202.88L75.03 202.58L75.26 202.26L75.49 201.93L75.72 201.59L75.95 201.23L76.18 200.86L76.4 200.49L76.63 200.1L76.85 199.69L77.07 199.28L77.29 198.85L77.51 198.41L77.73 197.96L77.95 197.5L78.17 197.02L78.17 102.98L78.16 102.58L78.13 102.19L78.09 101.8L78.04 101.42L77.97 101.04L77.89 100.67L77.79 100.3L77.67 99.94L77.55 99.58L77.41 99.23L77.26 98.89L77.09 98.56L76.91 98.23L76.72 97.91L76.52 97.6L76.31 97.3L76.09 97L75.85 96.72L75.6 96.44L75.35 96.18L75.08 95.92L74.81 95.68L74.52 95.44L74.23 95.22L73.93 95L73.61 94.8L73.3 94.61L72.97 94.43L72.63 94.27L72.29 94.12L71.94 93.98L71.59 93.85L71.23 93.74L70.86 93.64L70.49 93.56L70.11 93.49L69.73 93.43L69.34 93.39L68.95 93.37L68.55 93.36L68.15 93.37L67.76 93.39ZM149.33 46.36L148.96 46.39L148.6 46.44L148.23 46.5L147.87 46.57L147.51 46.66L147.16 46.76L146.81 46.88L146.46 47.01L146.12 47.15L145.78 47.31L145.45 47.48L145.13 47.66L144.81 47.85L144.5 48.06L144.2 48.28L143.9 48.51L143.62 48.76L143.34 49.01L143.07 49.28L142.81 49.56L142.56 49.85L142.32 50.16L142.1 50.48L141.88 50.8L141.67 51.14L141.48 51.49L141.31 51.84L141.15 52.2L141 52.56L140.87 52.92L140.76 53.28L140.66 53.65L140.58 54.02L140.51 54.39L140.46 54.76L140.42 55.13L140.39 55.51L140.38 55.88L140.39 56.25L140.41 56.62L140.44 56.99L140.49 57.35L140.55 57.72L140.62 58.08L140.71 58.44L140.81 58.79L140.93 59.14L141.06 59.49L141.2 59.83L141.36 60.17L141.53 60.5L141.71 60.82L141.9 61.14L142.11 61.45L142.33 61.75L142.56 62.05L142.81 62.33L143.06 62.61L143.33 62.88L143.61 63.14L143.9 63.39L144.21 63.63L144.53 63.85L144.85 64.07L145.19 64.28L226.64 111.3L226.99 111.49L227.34 111.67L227.7 111.83L228.06 111.97L228.42 112.1L228.78 112.22L229.15 112.31L229.52 112.4L229.89 112.47L230.26 112.52L230.63 112.56L231.01 112.58L231.38 112.59L231.75 112.59L232.12 112.57L232.49 112.54L232.85 112.49L233.22 112.43L233.58 112.35L233.94 112.26L234.29 112.16L234.64 112.04L234.99 111.92L235.33 111.77L235.67 111.62L236 111.45L236.32 111.27L236.64 111.07L236.95 110.87L237.25 110.65L237.55 110.41L237.83 110.17L238.11 109.91L238.38 109.64L238.64 109.36L238.89 109.07L239.13 108.77L239.35 108.45L239.57 108.12L239.78 107.78L239.97 107.44L240.14 107.08L240.3 106.73L240.45 106.37L240.58 106.01L240.69 105.64L240.79 105.27L240.87 104.91L240.94 104.54L240.99 104.16L241.03 103.79L241.06 103.42L241.07 103.05L241.06 102.68L241.04 102.31L241.01 101.94L240.96 101.57L240.9 101.21L240.83 100.84L240.74 100.49L240.64 100.13L240.52 99.78L240.39 99.44L240.25 99.09L240.09 98.76L239.92 98.43L239.74 98.1L239.55 97.79L239.34 97.48L239.12 97.17L238.89 96.88L238.64 96.59L238.39 96.31L238.12 96.05L237.84 95.79L237.55 95.54L237.24 95.3L236.92 95.07L236.6 94.85L236.26 94.65L154.81 47.62L154.46 47.43L154.11 47.26L153.75 47.1L153.39 46.95L153.03 46.82L152.67 46.71L152.3 46.61L151.93 46.53L151.56 46.46L151.19 46.41L150.82 46.37L150.44 46.34L150.07 46.33L149.7 46.34L149.33 46.36Z" id="b3yrPps9qY"></path></defs><g><g><g><use xlink:href="#b3yrPps9qY" opacity="1" fill="#DDE3E6" fill-opacity="1"></use><g><use xlink:href="#b3yrPps9qY" opacity="1" fill-opacity="0" stroke="#000000" stroke-width="1" stroke-opacity="0"></use></g></g></g></g></svg>